<svg xmlns="http://www.w3.org/2000/svg" xmlns:xlink="http://www.w3.org/1999/xlink" x="0px" y="0px" width="24px" height="24px" viewBox="0 0 24 24"><g  transform="translate(0, 0)">
<path fill="#e4dcca" d="M19.7,4.3c-0.4-0.4-1-0.4-1.4,0L12,10.6L5.7,4.3c-0.4-0.4-1-0.4-1.4,0s-0.4,1,0,1.4l6.3,6.3l-6.3,6.3&#10;&#9;c-0.4,0.4-0.4,1,0,1.4C4.5,19.9,4.7,20,5,20s0.5-0.1,0.7-0.3l6.3-6.3l6.3,6.3c0.2,0.2,0.5,0.3,0.7,0.3s0.5-0.1,0.7-0.3&#10;&#9;c0.4-0.4,0.4-1,0-1.4L13.4,12l6.3-6.3C20.1,5.3,20.1,4.7,19.7,4.3z"/>
</g></svg>